<svg xmlns="http://www.w3.org/2000/svg" width="2093.786" height="2691.637" viewBox="0 0 2093.786 2691.637">
  <path id="Path_6" data-name="Path 6" d="M1443.61,1790.724c-294.65-238.6-344.734-665.148-111.866-952.716,142.359-175.8,357.537-258.959,570.593-242.535C1768.787,453.1,1687,261.606,1687,51c0-439.618,356.382-796,796-796s796,356.382,796,796-356.381,796-796,796a804.09,804.09,0,0,1-102.657-6.559c209.052,245.565,224,607.755,18.422,861.623-130.576,161.248-322.435,244.56-517.7,244.572C1728.09,1946.646,1573.041,1895.535,1443.61,1790.724Z" transform="translate(-1185.214 745)" fill="#e3c795"/>
</svg>
