<?xml version="1.0" encoding="utf-8"?>
<!-- Generator: Adobe Illustrator 24.0.0, SVG Export Plug-In . SVG Version: 6.00 Build 0)  -->
<svg version="1.1" id="Layer_1" xmlns="http://www.w3.org/2000/svg" xmlns:xlink="http://www.w3.org/1999/xlink" x="0px" y="0px"
	 viewBox="0 0 408.2 464.4" style="enable-background:new 0 0 408.2 464.4;" xml:space="preserve">
<style type="text/css">
	.st0{fill:#515151;}
	.st1{fill:#2F8480;}
	.st2{fill:#D8D8D8;}
	.st3{fill:#DDAB62;}
	.st4{fill:#FFFFFF;}
</style>
<ellipse class="st0" cx="208.1" cy="411" rx="148.4" ry="26.3"/>
<g>
	<path class="st1" d="M93.2,202.7c-49.2-7.6-66.8-14.5-56.1-69.4C52.2,150.9,88.8,163.6,93.2,202.7z"/>
	<path class="st1" d="M122.8,245.5c-34-27.1-41.3-39.7-88.8-9.5C69.3,260,95.7,264.5,122.8,245.5z"/>
	<path class="st1" d="M151.8,251.8c3.2-49.2-45.4-61.2-54.2-79.4C87.7,220.6,104.6,241.1,151.8,251.8z"/>
	<path class="st1" d="M198.5,260c-50.5-22.7-54.2-34-54.9-73.1C198.5,206.4,199.1,229.1,198.5,260z"/>
	<g>
		<path class="st2" d="M203.2,257.4l-3-0.3c1.4-16.1,2.2-73.6-45.1-138.1l2.4-1.8C205.4,182.6,204.6,241.1,203.2,257.4z"/>
	</g>
	<g>
		<path class="st2" d="M240.9,260.6l-2.8-1.2c0.4-1,41.4-99.1,36.5-141.1l3-0.4C282.6,160.8,242.6,256.6,240.9,260.6z"/>
	</g>
	<path class="st1" d="M205.3,80.5c23.2,15.6,24.7,43.5,71.2,33.1C272.5,82.4,240.8,73.9,205.3,80.5z"/>
	<path class="st1" d="M277.6,110.3c13.7-43,16.1-87,16.1-87c-31.2,11.7-41.3,36.9-32.8,58.3C269.4,102.9,272,99.3,277.6,110.3z"/>
	<path class="st1" d="M269.7,170.6c-5-38.3,7-55,17.7-69.2c10.7-14.2,22.7-19.2,22.7-19.2c-5.7,17.7,3.8,47.9-8.2,66.8
		C289.9,168,269.7,170.6,269.7,170.6z"/>
	<path class="st1" d="M293.7,177.8c14.5-14.8,29.3-8.5,45.1-24.9c15.8-16.4,7.3-24.6,17.7-38.5c-23.3,8.8-48.5,11.4-59.3,35.6
		C286.5,174.3,293.7,177.8,293.7,177.8z"/>
	<path class="st1" d="M248,248.1c-5-33.4,0.3-56.1,19.7-75.7c16.7-16.8,30.9-25.3,33.6-26.3c-7.6,35.1,3.5,41.7-12,69.2
		C277.6,236.2,248,248.1,248,248.1z"/>
	<path class="st1" d="M344.2,223.5c-30,14.2-51.1,39.1-95.8,26.2C268.5,215.6,315.8,205.5,344.2,223.5z"/>
	<path class="st1" d="M93.2,66.8c7.6,40.4,21.4,53.9,41,55.2s27.2,3.4,27.2,3.4C138.3,79.7,102.3,73.4,93.2,66.8z"/>
	<path class="st1" d="M171.1,36.2c4.7,15.4,15.4,38.7,4.7,60.2c-10.7,21.5-14.4,24.9-14.4,24.9c-14-23-19.9-43.2-14-60.2
		C153.4,44.1,163,43.8,171.1,36.2z"/>
	<path class="st1" d="M175,147.4c-2,25.3-29.1,38.2-44.2,33.5c-15.1-4.7-23.3-14.5-25.2-14.8c18.6-6.9,22.5-20.5,40.7-25.5
		C164.5,135.5,175,147.4,175,147.4z"/>
	<path class="st1" d="M211.1,98.9c2.8,15.5,20.8,32.5,14.5,55.5s-20.5,32.2-21.8,38.5c-1.9-18.6-13.6-28.1-13.9-48.9
		C189.7,123.2,205.8,117.5,211.1,98.9z"/>
	<path class="st1" d="M201.1,227.9c9.7-14.2-1.6-31.8,11.2-57.1c12.7-25.2,34-33.8,34-33.8c5.3,30.6,1.5,54.9-15.6,68.4
		S210,219.7,201.1,227.9z"/>
	<path class="st1" d="M246.2,248.1c-37.6-9.8-39.3-40.6-36.6-58.9c24.5,10.1,37,23.9,38.7,36.8C250.1,238.9,246.2,248.1,246.2,248.1
		z"/>
	<path class="st1" d="M197,204.2c-8.9-31.8-31.6-41.8-58.5-36.2C148.1,202.7,175,208.5,197,204.2z"/>
	<g>
		<path class="st2" d="M122.8,247c-1.6-0.1-38.6-1.5-52-7.8l1.3-2.7c12.8,6,50.4,7.5,50.8,7.5L122.8,247z"/>
	</g>
	<g>
		<path class="st2" d="M147.1,263.4c-0.1-0.4-9.4-35.2-54.6-59.4c-1.2-0.7-27-16.2-40.7-35.1l2.4-1.8c13.4,18.5,39.5,34.1,39.8,34.3
			c46.3,24.9,55.7,59.8,56,61.3L147.1,263.4z"/>
	</g>
	<g>
		<path class="st2" d="M150.4,252.4c-0.1-0.3-11.4-30.7-31.2-45.7l1.8-2.4c20.5,15.6,31.7,45.8,32.2,47.1L150.4,252.4z"/>
	</g>
	<g>
		<path class="st2" d="M197.1,260.7c-0.1-0.3-14.1-29.9-35.2-43.9l1.7-2.5c21.8,14.5,35.7,43.9,36.3,45.1L197.1,260.7z"/>
	</g>
	<g>
		<path class="st2" d="M245.1,249c-0.8-0.9-19.4-23.2-27.4-39.7l2.7-1.3c7.9,16.2,26.8,38.9,27,39.1L245.1,249z"/>
	</g>
	<g>
		<path class="st2" d="M249.3,248.9l-2.4-1.7c3.2-4.5,7-12.1,11.1-20.1c6.8-13.4,14.5-28.6,22-35.3l2,2.2
			c-7.1,6.4-14.7,21.3-21.4,34.4C256.5,236.6,252.6,244.3,249.3,248.9z"/>
	</g>
	<g>
		<path class="st2" d="M248.9,251l-1.2-2.8c1.2-0.5,30.2-13.2,51-15.8l0.4,3C278.8,238,249.2,250.9,248.9,251z"/>
	</g>
	<g>
		<path class="st2" d="M295.2,178l-3-0.5c1.2-7.3,6.7-25.9,33.5-41.7l1.5,2.6C301.6,153.5,296.3,171.1,295.2,178z"/>
	</g>
	<g>
		<path class="st2" d="M270.9,171.5l-2.5-1.7c0.2-0.3,19.2-27.8,23.8-51.9l3,0.6C290.5,143.2,271.7,170.3,270.9,171.5z"/>
	</g>
	<g>
		<path class="st2" d="M276.1,115c-1.2-0.3-28.3-7.4-44.6-23.6l2.1-2.1c15.7,15.6,42.9,22.7,43.2,22.8L276.1,115z"/>
	</g>
	<g>
		<path class="st2" d="M279.1,110.4l-3-0.2c0.4-5.1-0.7-12.1-1.9-19.6c-2.3-14.1-4.8-30,0.2-43.7l2.8,1c-4.8,12.9-2.3,28.5-0.1,42.2
			C278.5,98.1,279.6,104.9,279.1,110.4z"/>
	</g>
	<g>
		<path class="st2" d="M162.9,121.6l-3-0.5c0.1-0.4,6-35.1,1.4-53.9l2.9-0.7C168.9,85.9,163.1,120.1,162.9,121.6z"/>
	</g>
	<g>
		<path class="st2" d="M160.8,126.7c-6.1-2.8-13.1-8.4-21.2-14.8c-6.8-5.5-14.6-11.6-22.6-16.6l1.6-2.6c8.1,5,16,11.3,22.9,16.8
			c7.6,6.1,14.8,11.8,20.6,14.5L160.8,126.7z"/>
	</g>
	<g>
		<path class="st2" d="M128.3,167.6l-2-2.2c15.7-14.8,47.2-19.3,48.5-19.5l0.4,3C174.8,149,143.4,153.5,128.3,167.6z"/>
	</g>
	<g>
		<path class="st2" d="M206.7,190.2l-2.9-0.9c2.7-8.5,2.4-19.2,2.1-29.5c-0.3-9.2-0.5-18.8,1.4-26.8l2.9,0.7c-1.8,7.6-1.5,17-1.3,26
			C209.3,170.3,209.6,181.2,206.7,190.2z"/>
	</g>
	<g>
		<path class="st2" d="M202.1,229.1l-1.9-2.3c4.2-3.6,26.4-34,27.2-56.2l3,0.1C229.5,194.2,206.6,225.2,202.1,229.1z"/>
	</g>
	<g>
		<path class="st2" d="M196,205.3c-0.1-0.1-14.5-13.9-33.8-22l1.2-2.8c19.8,8.4,34.1,22.1,34.7,22.7L196,205.3z"/>
	</g>
	<path class="st3" d="M251.2,410.1h-98.7c-13.5,0-26.3-6.6-34-17.7c-31-44.7-33.1-90.9,1.7-139.2h161.5
		c36.6,47.2,39.5,94.4,1.6,141.6C275.5,404.5,263.6,410.1,251.2,410.1z"/>
	<g>
		<path class="st4" d="M301.5,366H103.7c2.6,6.1,5.8,12.2,9.5,18.3h177.9C295.2,378.2,298.7,372.1,301.5,366z"/>
		<path class="st4" d="M304.6,293.5c-17-1.1-29.8,16.7-45.3,10.6c-19.3-7.6-36.8-17.7-53.3-7.9c-16.5,9.8-34.5,15.5-55.6,3.5
			c-18.7-10.6-31.7-5.9-53.6,4.5c-3.1,15.4-2.5,30.6,1.5,45.7h209.1C312.4,331.2,311.3,312.4,304.6,293.5z"/>
	</g>
</g>
</svg>
