<?xml version="1.0" encoding="utf-8"?>
<!-- Generator: Adobe Illustrator 24.0.0, SVG Export Plug-In . SVG Version: 6.00 Build 0)  -->
<svg version="1.1" id="Layer_1" xmlns="http://www.w3.org/2000/svg" xmlns:xlink="http://www.w3.org/1999/xlink" x="0px" y="0px"
	 viewBox="0 0 813.36 457.29" style="enable-background:new 0 0 813.36 457.29;" xml:space="preserve">
<style type="text/css">
	.st0{fill:#E8E8E8;}
	.st1{fill:#386E3E;}
	.st2{fill:#3F7D46;}
	.st3{fill:#79B543;}
	.st4{fill:#79AED4;}
	.st5{fill:#FFFCE3;}
</style>
<ellipse class="st0" cx="406.74" cy="411.92" rx="193.16" ry="26.26"/>
<g>
	<path class="st1" d="M325.35,285.08c-92.01-46.94-59.22-206.32-65.84-233.75c85.13,113.5,98.37,202.93,98.37,202.93
		c0.95-155.64,4.73-184.96,31.21-228.47C408,127,410.84,249.48,410.84,249.48C492.18,57.01,530.02,25.8,530.02,25.8
		c-11.35,112.56-74.72,243.77-74.72,243.77c63.37-60.28,128.64-58.38,128.64-58.38c-47.29,44.45-104.83,70.7-104.83,70.7
		C377.74,288.74,325.35,285.08,325.35,285.08z"/>
	<path class="st2" d="M343.68,238.14c-18.02-124.83-9.46-179.24,0-198.16c9.46,64.32,51.96,180.49,35.88,244.29
		C352.2,272.66,351.63,293.15,343.68,238.14z"/>
	<path class="st2" d="M366.39,263.2c6.82-104.37,56.12-205.25,52.65-244.03c27.44,88.15,4.49,198.4-4.1,230.3
		C406.13,283.93,365.15,282.1,366.39,263.2z"/>
	<path class="st3" d="M347.57,274.02c-32.26-55.7-17.12-85.83-39.19-136.19c43.4,28.58,85.59,108.71,78.78,138.47
		C362.19,279.97,347.57,274.02,347.57,274.02z"/>
	<path class="st2" d="M475,244.09c19.05-137.58,108.93-179.2,108.93-179.2c-12.61,72.52-34.68,195.19-71.25,211.41
		C471.06,267.3,471.44,269.82,475,244.09z"/>
	<path class="st3" d="M351.49,279.04c-89.77-10.94-103.65-106.5-121.93-121.46c43.51,2.52,81.34,69.14,112.24,86.5
		C354.4,262.89,351.49,279.04,351.49,279.04z"/>
	<path class="st3" d="M398.54,269.45c0.15-75.32,33.61-159.67,69.99-185.01c-9.46,81.34-18.39,188.22-30,198.63
		C414.83,288.9,398.52,281.35,398.54,269.45z"/>
	<path class="st3" d="M446.73,276.6c18.97-76.77,62.48-133.61,94.64-138.77c-29.32,23.22-32.16,116.86-56.28,136.25
		C458.67,283.07,446.73,276.6,446.73,276.6z"/>
	<path class="st4" d="M502.57,411.02H319.11c-5.23,0-10.01-2.95-12.36-7.62l0,0c-21.11-41.97-32.11-88.31-32.11-135.29l0,0h272.4
		l0,0c0,46.98-11,93.32-32.11,135.29l0,0C512.58,408.07,507.8,411.02,502.57,411.02z"/>
	<path class="st5" d="M296.23,313.88c0,0-8.99-18.72,0-33.89C305.69,299.35,296.23,313.88,296.23,313.88z"/>
	<path class="st5" d="M321.46,394.33c0,0-8.99-18.72,0-33.89C330.92,379.8,321.46,394.33,321.46,394.33z"/>
	<path class="st5" d="M417.25,398.74c0,0-8.99-18.72,0-33.89C426.71,384.21,417.25,398.74,417.25,398.74z"/>
	<path class="st5" d="M406.64,315.78c0,0-8.99-18.72,0-33.89C416.09,301.25,406.64,315.78,406.64,315.78z"/>
	<path class="st5" d="M359.66,352.98c0,0-8.99-18.72,0-33.89C369.12,338.45,359.66,352.98,359.66,352.98z"/>
	<path class="st5" d="M468.43,353.26c0,0-8.99-18.72,0-33.89C477.89,338.73,468.43,353.26,468.43,353.26z"/>
	<path class="st5" d="M504.37,397.47c0,0-8.99-18.72,0-33.89C513.83,382.94,504.37,397.47,504.37,397.47z"/>
	<path class="st5" d="M521.4,315.78c0,0-8.99-18.72,0-33.89C530.86,301.25,521.4,315.78,521.4,315.78z"/>
</g>
</svg>
